<mxfile host="app.diagrams.net" modified="2023-10-19T09:11:34.457Z" agent="Mozilla/5.0 (Windows NT 10.0; Win64; x64) AppleWebKit/537.36 (KHTML, like Gecko) Chrome/117.0.0.0 Safari/537.36 OPR/103.0.0.0" version="21.8.0" etag="APENxOpqhFzWKqlfWlPf" type="github">
  <diagram name="Page-1" id="x6VVjmVmE8nXz7FTQLwF">
    <mxGraphModel>
      <root>
        <mxCell id="0" />
        <mxCell id="1" parent="0" />
      </root>
    </mxGraphModel>
  </diagram>
</mxfile>
